<?xml version="1.0" encoding="utf-8"?>
<!-- Generator: Adobe Illustrator 17.0.0, SVG Export Plug-In . SVG Version: 6.00 Build 0)  -->
<!DOCTYPE svg PUBLIC "-//W3C//DTD SVG 1.1//EN" "http://www.w3.org/Graphics/SVG/1.1/DTD/svg11.dtd">
<svg version="1.1" id="图层_1" xmlns="http://www.w3.org/2000/svg" xmlns:xlink="http://www.w3.org/1999/xlink" x="0px" y="0px"
	 width="1024px" height="1024px" viewBox="0 0 1024 1024" enable-background="new 0 0 1024 1024" xml:space="preserve">
<polygon fill="#AA2540" points="77.496,436.575 62.786,532.88 157.925,532.88 153.566,561.415 58.427,561.415 53.342,594.705 
	175.804,594.705 190.514,498.4 96.587,498.4 100.946,469.865 194.873,469.865 199.958,436.575 "/>
<polygon fill="#AA2540" points="374.663,436.575 217.721,436.575 193.567,594.705 223.082,594.705 241.788,472.244 270.323,472.244 
	251.617,594.705 286.097,594.705 304.802,472.244 333.337,472.244 314.632,594.705 350.509,594.705 "/>
<polygon fill="#AA2540" points="486.735,469.865 491.82,436.575 391.948,436.575 386.863,469.865 417.776,469.865 398.707,594.705 
	436.753,594.705 455.822,469.865 "/>
<path fill="#AA2540" d="M694.156,485.152L678.29,589.029h-16.851l1.562-10.229h-92.746l14.216-93.071h16.446l-11.532,75.494h29.522
	l16.109-105.461h16.851l-16.109,105.461h29.927l11.619-76.07H694.156z"/>
<path fill="#AA2540" d="M785.871,505.178c7.821,22.043,23.415,43.51,41.471,55.036c-4.437,3.458-10.998,10.229-14.286,14.984
	c-15.202-11.67-27.889-30.111-36.582-50.858l-9.926,64.977h-17.12l9.815-64.257c-14.919,20.891-33.217,39.188-52.232,50.714
	c-2.014-4.466-6.528-11.093-9.753-14.695c21.713-11.526,43.504-33.281,58.012-55.9h-43.273l2.597-17.001h50.282l5.106-33.425h17.12
	l-5.106,33.425h50.551l-2.597,17.001H785.871z"/>
<path fill="#AA2540" d="M866.845,560.214c1.802,1.441,3.943,3.314,6.757,5.186c8.039,5.619,19.904,6.484,34.462,6.484
	c14.56,0,37.135-1.297,51.463-3.314c-2.412,4.322-5.87,11.958-6.822,16.424c-10.468,0.576-32.978,1.44-47.267,1.44
	c-16.851,0-27.528-1.585-35.97-7.204c-4.865-3.458-8.653-7.78-11.619-7.78c-4.043,0-11.947,8.501-18.952,17.289l-7.64-14.407
	c6.922-6.484,14.049-11.67,20.286-14.552l5.237-34.289h-16.985l2.421-15.848h32.353L866.845,560.214z M869.692,494.805
	c-3.819-6.771-12.884-17.144-19.693-24.636l12.347-10.229c6.941,6.628,16.455,16.712,20.744,23.052L869.692,494.805z
	 M892.81,564.969h-15.098l11.333-74.197h29.387c-6.121-3.17-12.377-6.34-17.912-8.933l11.766-9.076
	c4.815,2.017,10.733,4.755,16.381,7.492c4.283-2.449,8.61-5.186,12.556-8.068h-48.125l1.98-12.966h61.875l3.368-0.865l8.182,8.212
	c-7.797,6.916-17.682,14.263-27.458,20.026c2.362,1.297,4.569,2.738,6.415,3.89l-0.314,0.288h18.064l-9.067,59.358
	c-1.078,7.059-2.819,10.518-7.486,12.823c-4.552,2.449-10.484,2.449-18.437,2.449c-0.036-4.178-0.818-9.653-1.998-13.399
	c4.292,0.144,8.875,0.144,10.223,0.144c1.64-0.144,2.133-0.72,2.353-2.161l1.012-6.628h-15.907l-3.213,21.035h-14.289l3.213-21.035
	h-15.502L892.81,564.969z M913.506,530.967l1.232-8.068h-15.502l-1.232,8.068H913.506z M902.251,503.161l-1.189,7.78h15.502
	l1.189-7.78H902.251z M943.702,530.967l1.232-8.068h-15.907l-1.232,8.068H943.702z M947.95,503.161h-15.907l-1.189,7.78h15.907
	L947.95,503.161z"/>
<circle fill="#AA2540" cx="526.589" cy="521.436" r="15.754"/>
</svg>
